<?xml version="1.0"?>
<svg xmlns="http://www.w3.org/2000/svg" xmlns:xlink="http://www.w3.org/1999/xlink" xmlns:svgjs="http://svgjs.com/svgjs" version="1.1" width="512" height="512" x="0" y="0" viewBox="0 0 128 128" style="enable-background:new 0 0 512 512" xml:space="preserve"><g><g xmlns="http://www.w3.org/2000/svg"><path d="m49.612 83.7a1.75 1.75 0 0 0 -2.474 0l-22.915 22.911a1.75 1.75 0 1 0 2.474 2.475l22.915-22.915a1.749 1.749 0 0 0 0-2.471z" fill="#ffffff" data-original="#000000" style=""/><path d="m44.3 78.388a1.749 1.749 0 0 0 -2.475 0l-22.911 22.912a1.75 1.75 0 1 0 2.475 2.474l22.911-22.912a1.75 1.75 0 0 0 0-2.474z" fill="#ffffff" data-original="#000000" style=""/><path d="m122.918 12.567-7.485-7.485a1.786 1.786 0 0 0 -1.33-.51 1.749 1.749 0 0 0 -1.27.649l-9.033 11.193-42.364 42.366-7.179-7.18a1.8 1.8 0 0 0 -2.475 0l-4.99 4.991a1.744 1.744 0 0 0 -.457.8l-1.941 7.5-39.312 39.314a1.749 1.749 0 0 0 0 2.475l1.889 1.889a8.82 8.82 0 0 0 12.46 12.46l1.889 1.889a1.749 1.749 0 0 0 2.475 0l39.312-39.312 7.5-1.941a1.749 1.749 0 0 0 .8-.457l4.99-4.99a1.749 1.749 0 0 0 0-2.475l-7.177-7.179 42.369-42.364 11.19-9.028a1.75 1.75 0 0 0 .139-2.6zm-113.189 105.704a5.323 5.323 0 0 1 -.268-7.212l7.48 7.48a5.323 5.323 0 0 1 -7.212-.268zm12.829.935-13.764-13.764 37.175-37.174 13.763 13.763zm46.713-40.806-6.534 1.69-14.823-14.827 1.69-6.534 3.416-3.416 19.667 19.667zm-2.526-14.311-2.834-2.834 41.2-41.2 2.834 2.834zm43.8-43.546-3.084-3.085 6.877-8.524 4.731 4.732z" fill="#ffffff" data-original="#000000" style=""/></g></g></svg>
